<svg width="42" height="42" viewBox="0 0 42 42" fill="none" xmlns="http://www.w3.org/2000/svg">
    <rect width="42" height="42" rx="8" fill="black"/>
    <path d="M13.2 34.5L5.76 14.34H10.8L16.12 29.94L21.44 14.34H26.4L18.96 34.5H13.2ZM28.8284 34.5V14.34H33.6284V34.5H28.8284ZM31.2284 11.14C30.3484 11.14 29.6151 10.8733 29.0284 10.34C28.4684 9.78 28.1884 9.1 28.1884 8.3C28.1884 7.47333 28.4684 6.80666 29.0284 6.3C29.6151 5.76667 30.3484 5.5 31.2284 5.5C32.1084 5.5 32.8284 5.76667 33.3884 6.3C33.9751 6.80666 34.2684 7.47333 34.2684 8.3C34.2684 9.1 33.9751 9.78 33.3884 10.34C32.8284 10.8733 32.1084 11.14 31.2284 11.14Z" fill="#FCFF00"/>
</svg>
